<svg width="40" height="40" viewBox="0 0 40 40" fill="none" xmlns="http://www.w3.org/2000/svg">
<circle cx="20" cy="20" r="20" fill="#FBCC0C"/>
<g clip-path="url(#clip0)">
<path d="M28.0325 11H11.985C11.7018 10.9995 11.4423 11.1576 11.313 11.4094C11.1818 11.6646 11.2048 11.9719 11.3724 12.2049L17.2515 20.487C17.2535 20.4899 17.2556 20.4925 17.2576 20.4954C17.4712 20.7838 17.5868 21.1332 17.5874 21.4921V28.2444C17.5861 28.4443 17.6646 28.6365 17.8054 28.7783C17.9464 28.92 18.1381 29 18.338 29C18.4395 28.9998 18.5402 28.9796 18.634 28.9406L21.9376 27.681C22.2335 27.5905 22.43 27.3112 22.43 26.975V21.4921C22.4305 21.1332 22.5462 20.7838 22.7596 20.4954C22.7616 20.4925 22.7637 20.4899 22.7657 20.487L28.645 12.2048C28.8126 11.9719 28.8356 11.6648 28.7044 11.4096C28.5752 11.1576 28.3156 10.9995 28.0325 11Z" fill="white"/>
</g>
<defs>
<clipPath id="clip0">
<rect x="11" y="11" width="18" height="18" fill="white"/>
</clipPath>
</defs>
</svg>
