<svg width="101" height="27" viewBox="0 0 101 27" fill="none" xmlns="http://www.w3.org/2000/svg">
<path d="M27.8548 16.854L27.2094 16.1256L19.9067 7.84552C19.3074 7.1632 18.5513 6.78516 17.6477 6.78516H15.6284C14.734 6.78516 13.9963 7.51358 13.9963 8.41719V15.6092V16.7802V26.1114C17.6753 25.6227 19.0308 23.336 19.0308 18.1172V16.3837C19.0308 16.0979 19.1967 15.8582 19.4549 15.766C19.7223 15.6738 19.9989 15.7567 20.1833 15.9596C22.7097 18.8272 25.9369 22.4877 28.3435 25.2262V17.4164C28.3066 17.3703 28.2236 17.2781 27.8548 16.854Z" fill="#BDBDBD"/>
<path fill-rule="evenodd" clip-rule="evenodd" d="M31.7925 0C33.194 0 34.5218 1.21711 34.5218 2.72006C34.5218 4.23223 33.3047 5.477 32.0784 5.44934C31.6634 5.44012 30.8336 5.40324 30.3357 4.89611C30.2342 5.22805 30.4187 5.77206 30.6584 6.14088C29.0909 5.45856 28.6391 3.66977 28.8143 2.35124C29.0264 0.820628 30.391 0 31.7925 0Z" fill="#BDBDBD"/>
<path d="M6.8693 20.6067C5.69829 20.6067 5.0713 19.6201 5.0713 18.8272C5.0713 18.2278 5.05285 17.3703 5.05285 16.4022V8.41719C5.05285 7.51358 4.32443 6.78516 3.42082 6.78516H1.63204C0.728422 6.78516 0 7.51358 0 8.41719V17.7484C0 18.3016 0.0184411 18.818 0.0461027 19.3066V18.8917C0.0645438 22.6353 3.02434 25.678 6.72177 25.844C6.8693 25.8532 7.00761 25.8532 7.15514 25.8532C9.09145 25.8532 11.0646 25.8532 13.001 25.8532C13.001 24.1198 13.001 22.3402 13.001 20.6067C10.9448 20.6067 8.92548 20.6067 6.8693 20.6067Z" fill="#BDBDBD"/>
<path d="M34.5218 24.2212C34.5218 18.9563 34.5218 13.6821 34.5218 8.41719C34.5218 7.51358 33.7841 6.78516 32.8898 6.78516H31.0918C30.1974 6.78516 29.4597 7.51358 29.4597 8.41719V13.9219V16.4391V25.8532C29.847 25.8532 30.3818 25.8532 31.3038 25.8532H32.8898C33.7841 25.8532 34.5218 25.1248 34.5218 24.2212Z" fill="#BDBDBD"/>
<path d="M38.1086 8.58589H39.7315V14.0445C39.7315 14.4041 39.7407 14.6622 39.7591 14.8005C39.7776 14.9388 39.8237 15.0772 39.8974 15.2339C40.0081 15.4644 40.174 15.6488 40.3769 15.7779C40.589 15.9162 40.8103 15.9808 41.05 15.9808C41.2621 15.9808 41.4741 15.9254 41.6862 15.8056C41.8891 15.6949 42.0458 15.5474 42.1565 15.3538C42.2579 15.197 42.3132 15.031 42.3501 14.8559C42.3778 14.6807 42.3962 14.4133 42.3962 14.0445V8.58589H44.0282V14.0445C44.0282 14.6253 43.9821 15.0956 43.8807 15.446C43.7885 15.7964 43.6133 16.1191 43.3828 16.4141C43.1062 16.7645 42.7558 17.0319 42.3316 17.244C41.9075 17.4468 41.4926 17.5575 41.0684 17.5575C40.672 17.5575 40.2755 17.4561 39.8605 17.2624C39.4548 17.0688 39.1045 16.8106 38.8094 16.4879C38.5512 16.1836 38.3668 15.8517 38.2654 15.4921C38.164 15.1325 38.1086 14.653 38.1086 14.0445V8.58589ZM45.6971 17.3454V8.58589H47.5228L51.0912 14.8282L51.1649 15.1325V8.58589H52.797V17.3454H50.9897L47.4214 11.1215L47.32 10.8265V17.3454H45.6971ZM54.4751 17.3454V8.58589H56.0887V17.3454H54.4751ZM59.4173 17.3454H57.7945V8.57667H59.8507C60.4223 8.57667 60.8465 8.59511 61.1231 8.63199C61.5104 8.66888 61.8792 8.80718 62.2204 9.0377C62.58 9.28665 62.8658 9.60015 63.0779 9.99663C63.2807 10.3931 63.3821 10.8173 63.3821 11.2598C63.3821 11.7024 63.2899 12.1266 63.1055 12.5138C62.9119 12.9103 62.6629 13.233 62.331 13.482C62.165 13.6203 61.953 13.7402 61.7132 13.8324C61.3536 13.9615 60.699 14.0168 59.7216 14.0168H59.4173V17.3454ZM59.4173 12.4493H59.7031H59.8783H60.0259C60.4592 12.4493 60.7727 12.4124 60.9664 12.3479C61.2061 12.2741 61.3997 12.145 61.5473 11.9422C61.6856 11.7485 61.7593 11.5272 61.7593 11.2783C61.7593 11.0201 61.6856 10.7988 61.5288 10.6144C61.3813 10.4208 61.1692 10.2917 60.911 10.2271C60.699 10.181 60.4039 10.1534 60.0259 10.1534H59.8876H59.7031H59.4173V12.4493ZM64.4333 17.3454V8.57667H66.9689C67.5222 8.57667 67.974 8.62277 68.3151 8.71498C68.6563 8.80718 68.9606 8.96393 69.2372 9.18523C69.5507 9.4434 69.7996 9.76612 69.984 10.1626C70.1685 10.5499 70.2607 10.9371 70.2607 11.3336C70.2607 11.6748 70.1961 12.0159 70.0578 12.3755C69.9195 12.7259 69.7443 13.021 69.5415 13.2607C69.3571 13.4636 69.1542 13.6295 68.9145 13.7586C68.6655 13.8969 68.352 14.0168 67.974 14.109L70.3437 17.3454H68.352L66.0561 13.9799V17.3454H64.4333ZM66.0561 12.7444H66.9413C67.4853 12.7444 67.9094 12.6337 68.2045 12.4124C68.4903 12.1819 68.6378 11.8592 68.6378 11.435C68.6378 11.0293 68.4811 10.7066 68.1676 10.4484C68.0016 10.3286 67.8449 10.2456 67.6789 10.2087C67.5222 10.1718 67.2732 10.1534 66.9505 10.1534H66.0561V12.7444ZM75.3412 8.41992C76.1895 8.41992 76.9732 8.62277 77.6832 9.02848C78.3932 9.43418 78.9556 9.98741 79.3706 10.6882C79.7763 11.3889 79.9791 12.1635 79.9791 13.0025C79.9791 13.8232 79.7763 14.5792 79.3706 15.28C78.9649 15.9808 78.4024 16.534 77.7016 16.9397C77.0009 17.3454 76.2356 17.5575 75.4149 17.5575C74.5943 17.5575 73.829 17.3454 73.1283 16.9397C72.4275 16.534 71.8743 15.9808 71.4593 15.28C71.0536 14.5792 70.8508 13.8232 70.8508 13.0025C70.8508 12.1819 71.0536 11.4166 71.4593 10.7158C71.865 10.0151 72.409 9.45262 73.1006 9.0377C73.7921 8.62277 74.539 8.41992 75.3412 8.41992ZM75.4795 9.98741C74.9263 9.98741 74.4191 10.1165 73.9581 10.3839C73.5063 10.6421 73.1375 11.0017 72.8793 11.4535C72.6119 11.9145 72.4828 12.4124 72.4828 12.9564C72.4828 13.5004 72.6119 13.9983 72.8793 14.4686C73.1467 14.9296 73.5063 15.2984 73.9581 15.5751C74.4099 15.8425 74.8986 15.9808 75.4149 15.9808C75.9405 15.9808 76.4292 15.8425 76.881 15.5658C77.3328 15.2984 77.6924 14.9296 77.9598 14.4594C78.2272 13.9983 78.3563 13.4912 78.3563 12.9564C78.3563 12.4309 78.2272 11.9422 77.969 11.4904C77.7016 11.0293 77.3513 10.6697 76.9087 10.3931C76.4569 10.1257 75.9866 9.98741 75.4795 9.98741ZM81.27 17.3454V8.58589H83.4737L85.8342 15.0679L85.9356 15.5935L86.037 15.0679L88.2131 8.58589H90.4168V17.3454H88.7939V10.7804L86.5257 17.3454H85.1518L82.8928 10.7804V17.3454H81.27ZM95.9675 8.41992C96.825 8.41992 97.6088 8.62277 98.3188 9.02848C99.0287 9.43418 99.5912 9.98741 99.9969 10.6882C100.412 11.3889 100.615 12.1635 100.615 13.0025C100.615 13.8232 100.412 14.5792 100.006 15.28C99.5912 15.9808 99.038 16.534 98.328 16.9397C97.6272 17.3454 96.8711 17.5575 96.0505 17.5575C95.2207 17.5575 94.4646 17.3454 93.7638 16.9397C93.0538 16.534 92.5006 15.9808 92.0949 15.28C91.68 14.5792 91.4771 13.8232 91.4771 13.0025C91.4771 12.1819 91.68 11.4166 92.0857 10.7158C92.4914 10.0151 93.0446 9.45262 93.7269 9.0377C94.4185 8.62277 95.1653 8.41992 95.9675 8.41992ZM96.1058 9.98741C95.5526 9.98741 95.0547 10.1165 94.5937 10.3839C94.1326 10.6421 93.773 11.0017 93.5056 11.4535C93.2475 11.9145 93.1092 12.4124 93.1092 12.9564C93.1092 13.5004 93.2475 13.9983 93.5149 14.4686C93.7823 14.9296 94.1326 15.2984 94.5937 15.5751C95.0455 15.8425 95.5249 15.9808 96.0505 15.9808C96.5669 15.9808 97.0556 15.8425 97.5074 15.5658C97.9592 15.2984 98.3188 14.9296 98.5862 14.4594C98.8628 13.9983 98.9919 13.4912 98.9919 12.9564C98.9919 12.4309 98.8628 11.9422 98.5954 11.4904C98.3372 11.0293 97.9868 10.6697 97.535 10.3931C97.0924 10.1257 96.613 9.98741 96.1058 9.98741Z" fill="#BDBDBD"/>
<path d="M42.4573 19.1415V24.6192H41.9312V23.8797C41.7965 24.0551 41.6796 24.1872 41.5805 24.2762C41.484 24.3651 41.3671 24.4439 41.2298 24.5125C40.9579 24.6472 40.6568 24.7145 40.3264 24.7145C39.6682 24.7145 39.0926 24.4363 38.5996 23.8797C38.3023 23.5519 38.1536 23.1199 38.1536 22.5837C38.1536 22.205 38.2502 21.8531 38.4433 21.5278C38.6365 21.2025 38.8995 20.9458 39.2324 20.7578C39.5653 20.5697 39.93 20.4757 40.3264 20.4757C40.7991 20.4757 41.2095 20.6142 41.5577 20.8912C41.6593 20.9649 41.7762 21.092 41.9084 21.2724V19.1415H42.4573ZM41.916 22.5989C41.916 22.3067 41.8448 22.0373 41.7025 21.7908C41.5602 21.5443 41.3658 21.3512 41.1193 21.2114C40.8702 21.0691 40.5971 20.9979 40.2997 20.9979C40.0126 20.9979 39.7457 21.0691 39.4992 21.2114C39.2527 21.3537 39.0583 21.5469 38.916 21.7908C38.7737 22.0322 38.7026 22.2965 38.7026 22.5837C38.7026 22.8708 38.7737 23.139 38.916 23.388C39.0609 23.6345 39.2578 23.8289 39.5069 23.9712C39.7534 24.1186 40.0202 24.1923 40.3074 24.1923C40.5945 24.1923 40.8614 24.1211 41.1079 23.9788C41.3544 23.834 41.55 23.6396 41.6949 23.3956C41.8423 23.1491 41.916 22.8836 41.916 22.5989ZM43.395 24.623V20.5634H43.9401V24.623H43.395ZM43.395 20.0793V19.1415H43.9401V20.0793H43.395ZM48.9337 20.5634V24.0436C48.9337 24.346 48.921 24.576 48.8955 24.7336C48.8549 25.0157 48.7113 25.2889 48.4648 25.5531C48.3327 25.6929 48.1802 25.8111 48.0074 25.9077C47.8371 26.0068 47.6541 26.0817 47.4585 26.1326C47.2628 26.1834 47.0646 26.2088 46.8638 26.2088C46.5512 26.2088 46.2514 26.1415 45.9642 26.0068C45.6796 25.8721 45.4382 25.684 45.2399 25.4426C45.0875 25.2546 44.9655 25.0119 44.874 24.7145H45.4039C45.564 24.9864 45.7152 25.1847 45.8575 25.3092C46.1446 25.5608 46.4915 25.6866 46.8981 25.6866C47.1853 25.6866 47.4483 25.623 47.6872 25.496C47.9261 25.3689 48.1078 25.1974 48.2323 24.9814C48.3034 24.8543 48.3504 24.7285 48.3733 24.604C48.3962 24.4769 48.4076 24.2901 48.4076 24.0436L48.4114 23.8187C48.3174 24.0068 48.2234 24.144 48.1294 24.2304C47.9743 24.3829 47.7812 24.5023 47.55 24.5887C47.3212 24.6726 47.0824 24.7145 46.8333 24.7145C46.4521 24.7145 46.0989 24.6205 45.7736 24.4325C45.4509 24.2444 45.1955 23.9903 45.0074 23.6701C44.8194 23.3473 44.7253 22.9979 44.7253 22.6218C44.7253 22.3219 44.7762 22.0424 44.8778 21.7832C44.982 21.5214 45.1269 21.2927 45.3124 21.097C45.5004 20.9014 45.7215 20.7476 45.9756 20.6358C46.2272 20.5291 46.4979 20.4757 46.7876 20.4757C47.2958 20.4757 47.7253 20.6269 48.076 20.9293C48.1903 21.031 48.3022 21.172 48.4114 21.3524V20.5596L48.9337 20.5634ZM46.8104 20.9979C46.5284 20.9979 46.2692 21.0678 46.0328 21.2076C45.7965 21.3448 45.611 21.5341 45.4763 21.7756C45.3416 22.017 45.2743 22.2813 45.2743 22.5684C45.2743 22.8734 45.3416 23.1491 45.4763 23.3956C45.6135 23.6447 45.8016 23.8403 46.0404 23.9826C46.2793 24.1224 46.5462 24.1923 46.8409 24.1923C47.1281 24.1923 47.3911 24.1211 47.63 23.9788C47.8689 23.8365 48.0582 23.6421 48.198 23.3956C48.3327 23.1491 48.4 22.8785 48.4 22.5837C48.4 22.3016 48.3288 22.0386 48.1865 21.7946C48.0442 21.5507 47.8498 21.3575 47.6033 21.2152C47.3594 21.0704 47.0951 20.9979 46.8104 20.9979ZM49.8752 24.623V20.5634H50.4203V24.623H49.8752ZM49.8752 20.0793V19.1415H50.4203V20.0793H49.8752ZM51.8307 24.623V21.0627H50.9807V20.5634H51.8307V19.1415H52.3758V20.5634H53.3212V21.0627H52.3758V24.623H51.8307ZM58.0098 20.5634V24.6192H57.4761V23.8569C57.377 24.0271 57.2652 24.1707 57.1407 24.2876C56.8078 24.5722 56.3974 24.7145 55.9094 24.7145C55.5841 24.7145 55.2538 24.6345 54.9183 24.4744C54.5829 24.3117 54.3173 24.1059 54.1217 23.8569C53.9997 23.6968 53.9018 23.5036 53.8281 23.2774C53.757 23.0487 53.7214 22.82 53.7214 22.5913C53.7214 22.2101 53.818 21.8569 54.0111 21.5316C54.2068 21.2063 54.4723 20.9497 54.8078 20.7616C55.1407 20.571 55.5028 20.4757 55.8942 20.4757C56.1381 20.4757 56.3681 20.5138 56.5841 20.5901C56.8027 20.6663 56.9907 20.7768 57.1483 20.9217C57.2703 21.0284 57.3795 21.1669 57.4761 21.3372V20.5596L58.0098 20.5634ZM55.9247 20.9979C55.6197 20.9979 55.3402 21.0704 55.0861 21.2152C54.8319 21.3575 54.6324 21.5519 54.4876 21.7984C54.3427 22.0449 54.2703 22.3143 54.2703 22.6066C54.2703 22.8912 54.344 23.1555 54.4914 23.3994C54.6388 23.6408 54.837 23.834 55.0861 23.9788C55.3376 24.1211 55.6096 24.1923 55.9018 24.1923C56.1813 24.1923 56.4418 24.1211 56.6832 23.9788C56.9272 23.834 57.1203 23.6408 57.2627 23.3994C57.405 23.1555 57.4761 22.8912 57.4761 22.6066C57.4761 22.3219 57.4062 22.0551 57.2665 21.8061C57.1267 21.557 56.9374 21.3601 56.6985 21.2152C56.4596 21.0704 56.2017 20.9979 55.9247 20.9979ZM58.9475 24.623V19.1415H59.4926V24.623H58.9475ZM66.6247 20.5634V24.6192H66.091V23.8569C65.9919 24.0271 65.8801 24.1707 65.7555 24.2876C65.4226 24.5722 65.0122 24.7145 64.5243 24.7145C64.199 24.7145 63.8687 24.6345 63.5332 24.4744C63.1978 24.3117 62.9322 24.1059 62.7365 23.8569C62.6145 23.6968 62.5167 23.5036 62.443 23.2774C62.3719 23.0487 62.3363 22.82 62.3363 22.5913C62.3363 22.2101 62.4328 21.8569 62.626 21.5316C62.8217 21.2063 63.0872 20.9497 63.4227 20.7616C63.7556 20.571 64.1177 20.4757 64.5091 20.4757C64.753 20.4757 64.983 20.5138 65.199 20.5901C65.4176 20.6663 65.6056 20.7768 65.7632 20.9217C65.8852 21.0284 65.9944 21.1669 66.091 21.3372V20.5596L66.6247 20.5634ZM64.5396 20.9979C64.2346 20.9979 63.9551 21.0704 63.7009 21.2152C63.4468 21.3575 63.2473 21.5519 63.1025 21.7984C62.9576 22.0449 62.8852 22.3143 62.8852 22.6066C62.8852 22.8912 62.9589 23.1555 63.1063 23.3994C63.2537 23.6408 63.4519 23.834 63.7009 23.9788C63.9525 24.1211 64.2244 24.1923 64.5167 24.1923C64.7962 24.1923 65.0567 24.1211 65.2981 23.9788C65.5421 23.834 65.7352 23.6408 65.8775 23.3994C66.0198 23.1555 66.091 22.8912 66.091 22.6066C66.091 22.3219 66.0211 22.0551 65.8813 21.8061C65.7416 21.557 65.5522 21.3601 65.3134 21.2152C65.0745 21.0704 64.8166 20.9979 64.5396 20.9979ZM71.6144 20.5634V24.0436C71.6144 24.346 71.6017 24.576 71.5763 24.7336C71.5356 25.0157 71.3921 25.2889 71.1456 25.5531C71.0134 25.6929 70.8609 25.8111 70.6881 25.9077C70.5179 26.0068 70.3349 26.0817 70.1392 26.1326C69.9435 26.1834 69.7453 26.2088 69.5446 26.2088C69.232 26.2088 68.9321 26.1415 68.645 26.0068C68.3603 25.8721 68.1189 25.684 67.9207 25.4426C67.7682 25.2546 67.6462 25.0119 67.5548 24.7145H68.0846C68.2447 24.9864 68.3959 25.1847 68.5382 25.3092C68.8254 25.5608 69.1723 25.6866 69.5789 25.6866C69.866 25.6866 70.1291 25.623 70.3679 25.496C70.6068 25.3689 70.7885 25.1974 70.913 24.9814C70.9842 24.8543 71.0312 24.7285 71.0541 24.604C71.0769 24.4769 71.0884 24.2901 71.0884 24.0436L71.0922 23.8187C70.9982 24.0068 70.9041 24.144 70.8101 24.2304C70.6551 24.3829 70.462 24.5023 70.2307 24.5887C70.002 24.6726 69.7631 24.7145 69.5141 24.7145C69.1329 24.7145 68.7796 24.6205 68.4544 24.4325C68.1316 24.2444 67.8762 23.9903 67.6882 23.6701C67.5001 23.3473 67.4061 22.9979 67.4061 22.6218C67.4061 22.3219 67.4569 22.0424 67.5586 21.7832C67.6628 21.5214 67.8076 21.2927 67.9931 21.097C68.1812 20.9014 68.4023 20.7476 68.6564 20.6358C68.908 20.5291 69.1786 20.4757 69.4683 20.4757C69.9766 20.4757 70.4061 20.6269 70.7567 20.9293C70.8711 21.031 70.9829 21.172 71.0922 21.3524V20.5596L71.6144 20.5634ZM69.4912 20.9979C69.2091 20.9979 68.9499 21.0678 68.7136 21.2076C68.4772 21.3448 68.2917 21.5341 68.157 21.7756C68.0224 22.017 67.955 22.2813 67.955 22.5684C67.955 22.8734 68.0224 23.1491 68.157 23.3956C68.2943 23.6447 68.4823 23.8403 68.7212 23.9826C68.9601 24.1224 69.2269 24.1923 69.5217 24.1923C69.8089 24.1923 70.0719 24.1211 70.3108 23.9788C70.5496 23.8365 70.739 23.6421 70.8787 23.3956C71.0134 23.1491 71.0808 22.8785 71.0808 22.5837C71.0808 22.3016 71.0096 22.0386 70.8673 21.7946C70.725 21.5507 70.5306 21.3575 70.2841 21.2152C70.0401 21.0704 69.7758 20.9979 69.4912 20.9979ZM76.608 22.7552H72.9333C72.9613 22.9738 73.0045 23.1453 73.0629 23.2698C73.1417 23.4477 73.2561 23.6078 73.406 23.7501C73.5559 23.8899 73.7275 23.9992 73.9206 24.0779C74.1138 24.1542 74.3145 24.1923 74.5229 24.1923C74.9651 24.1923 75.345 24.0411 75.6627 23.7387C75.7821 23.6218 75.8837 23.4769 75.9676 23.3041H76.547C76.4454 23.5379 76.3539 23.7133 76.2726 23.8302C76.1912 23.9471 76.0769 24.0678 75.9295 24.1923C75.7389 24.3575 75.5178 24.4858 75.2662 24.5773C75.0146 24.6688 74.7618 24.7145 74.5076 24.7145C74.1239 24.7145 73.7707 24.6218 73.4479 24.4363C73.1252 24.2482 72.8685 23.9915 72.6779 23.6663C72.4899 23.341 72.3959 22.9852 72.3959 22.5989C72.3959 22.2152 72.4899 21.8607 72.6779 21.5354C72.866 21.2101 73.1214 20.9522 73.4441 20.7616C73.7694 20.571 74.1214 20.4757 74.5 20.4757C74.8202 20.4757 75.1239 20.5443 75.4111 20.6816C75.6982 20.8188 75.9435 21.0132 76.1468 21.2648C76.3399 21.5036 76.4733 21.7768 76.547 22.0843C76.5724 22.1987 76.5928 22.4223 76.608 22.7552ZM72.9524 22.2559H76.0477C76.007 22.0246 75.9117 21.8124 75.7618 21.6193C75.6144 21.4261 75.4289 21.2749 75.2052 21.1657C74.9841 21.0538 74.7516 20.9979 74.5076 20.9979C74.2586 20.9979 74.0261 21.05 73.8101 21.1542C73.5966 21.2559 73.4149 21.4033 73.265 21.5964C73.115 21.787 73.0108 22.0068 72.9524 22.2559ZM77.3742 24.623V20.5596H77.8888V21.1962C77.993 21.0335 78.0896 20.9103 78.1785 20.8264C78.4428 20.5926 78.8024 20.4757 79.2573 20.4757C79.8392 20.4757 80.2839 20.6688 80.5914 21.0551C80.7134 21.2076 80.8049 21.3791 80.8659 21.5697C80.932 21.7934 80.965 22.0983 80.965 22.4846V24.623H80.4085V22.4846C80.4085 22.3041 80.3957 22.1263 80.3703 21.9509C80.3221 21.651 80.1937 21.4172 79.9853 21.2495C79.777 21.0818 79.5127 20.9979 79.1925 20.9979C78.979 20.9979 78.7744 21.045 78.5787 21.139C78.3907 21.2279 78.242 21.3486 78.1328 21.5011C78.0489 21.6104 77.9917 21.7336 77.9612 21.8709C77.9333 22.0081 77.9193 22.2127 77.9193 22.4846V24.623H77.3742ZM85.322 23.4337H85.9319C85.8328 23.6218 85.7489 23.7641 85.6803 23.8607C85.6142 23.9547 85.5316 24.0475 85.4325 24.1389C85.0234 24.5227 84.5291 24.7145 83.9497 24.7145C83.5431 24.7145 83.1708 24.6218 82.8328 24.4363C82.4948 24.2482 82.228 23.9928 82.0323 23.6701C81.8366 23.3448 81.7388 22.9877 81.7388 22.5989C81.7388 22.2127 81.8366 21.8569 82.0323 21.5316C82.228 21.2063 82.4948 20.9497 82.8328 20.7616C83.1708 20.571 83.538 20.4757 83.9345 20.4757C84.5545 20.4757 85.0818 20.6968 85.5164 21.139C85.6689 21.2965 85.8099 21.5151 85.9395 21.7946H85.322C85.2025 21.6218 85.0831 21.4846 84.9637 21.3829C84.6613 21.1263 84.3156 20.9979 83.9268 20.9979C83.627 20.9979 83.3512 21.0691 83.0997 21.2114C82.8481 21.3512 82.6498 21.543 82.505 21.787C82.3601 22.031 82.2877 22.2965 82.2877 22.5837C82.2877 22.8836 82.3589 23.1567 82.5012 23.4032C82.6435 23.6472 82.8404 23.8403 83.092 23.9826C83.3411 24.1224 83.6168 24.1923 83.9192 24.1923C84.1911 24.1923 84.4427 24.1351 84.674 24.0208C84.8036 23.9547 84.9128 23.8823 85.0018 23.8035C85.0907 23.7222 85.1975 23.5989 85.322 23.4337ZM89.557 20.5634H90.1402L87.7921 26.0449H87.2127L87.8531 24.4973L86.2978 20.5634H86.8849L88.1809 23.8035L89.557 20.5634Z" fill="#BDBDBD"/>
</svg>
