<svg width="196" height="34" viewBox="0 0 196 34" fill="none" xmlns="http://www.w3.org/2000/svg">
<path d="M18.0103 0.603052C16.762 0.595127 15.484 0.618903 14.1743 0.672401C12.8646 0.727879 11.5787 0.866576 10.3066 1.0766C9.0445 1.28663 7.84378 1.62148 6.71241 2.07918C5.59095 2.53886 4.58441 3.16102 3.69675 3.96149C2.81504 4.78575 2.12155 5.73285 1.62224 6.80676C1.11501 7.87869 0.748456 9.01402 0.514652 10.2108C0.280849 11.4095 0.142153 12.6142 0.0787485 13.8268C0.0173257 15.0394 -0.0064509 16.1965 0.00147463 17.3021C-0.0064509 18.382 0.0173257 19.5253 0.0787485 20.7299C0.142153 21.9346 0.280849 23.1393 0.514652 24.336C0.748456 25.5407 1.11501 26.684 1.62224 27.7638C2.12155 28.8457 2.81504 29.8007 3.69675 30.6408C4.56856 31.4334 5.5751 32.0634 6.70449 32.5231C7.84378 32.9808 9.05243 33.3157 10.3304 33.5257C11.6005 33.7357 12.8963 33.8665 14.206 33.9299C15.5157 33.9834 16.7858 34.0072 18.0103 33.9992C19.2328 34.0072 20.5048 33.9834 21.8145 33.9299C23.1242 33.8665 24.418 33.7357 25.696 33.5257C26.974 33.3157 28.1747 32.9808 29.314 32.5231C30.4434 32.0634 31.45 31.4334 32.3238 30.6408C33.2035 29.8007 33.897 28.8457 34.4042 27.7638C34.9035 26.684 35.2701 25.5407 35.5039 24.336C35.7377 23.1393 35.8784 21.9346 35.9398 20.7299C36.0032 19.5253 36.027 18.382 36.019 17.3021C36.027 16.1965 36.0032 15.0394 35.9398 13.8268C35.8784 12.6142 35.7377 11.4095 35.5039 10.2108C35.2701 9.01402 34.9035 7.87869 34.4042 6.80676C33.897 5.73285 33.2035 4.78575 32.3238 3.96149C31.442 3.16102 30.4296 2.53886 29.3061 2.07918C28.1747 1.62148 26.982 1.28663 25.7119 1.0766C24.4418 0.866576 23.1559 0.727879 21.8462 0.672401C20.5345 0.618903 19.2565 0.595127 18.0103 0.603052ZM10.8535 17.3021C10.8456 16.4066 10.8694 15.5982 10.907 14.8749C10.9546 14.1537 11.0635 13.484 11.2339 12.8698C11.4063 12.2556 11.6877 11.6651 12.0681 11.0984C12.5377 10.3911 13.0509 9.86998 13.6274 9.5272C14.206 9.18442 14.8519 8.96052 15.5771 8.85947C16.2944 8.75842 17.1048 8.71087 18.0103 8.71879C18.9217 8.71087 19.74 8.75842 20.4573 8.85947C21.1666 8.96052 21.8145 9.18442 22.3832 9.5272C22.9518 9.86998 23.4749 10.3911 23.9504 11.0984C24.3626 11.6968 24.6598 12.2873 24.8302 12.8777C25.0026 13.4761 25.1036 14.122 25.1353 14.8294C25.167 15.5367 25.1749 16.361 25.167 17.3021C25.1749 18.164 25.1591 18.9566 25.1195 19.6798C25.0877 20.3951 24.9788 21.0628 24.8084 21.685C24.636 22.315 24.3487 22.9213 23.9504 23.5039C23.4749 24.2112 22.9518 24.7323 22.3832 25.0751C21.8145 25.4179 21.1666 25.6418 20.4573 25.7428C19.74 25.8439 18.9217 25.8914 18.0103 25.8835C17.1206 25.8914 16.3182 25.8439 15.593 25.7428C14.8757 25.6418 14.2199 25.4179 13.6433 25.0751C13.0588 24.7323 12.5377 24.2112 12.0681 23.5039C11.7174 22.961 11.4539 22.3784 11.2736 21.7404C11.1032 21.1104 10.9863 20.4268 10.9308 19.6877C10.8753 18.9487 10.8456 18.1561 10.8535 17.3021ZM70.7725 0.975552H44.86C44.6182 0.967627 44.2893 0.991403 43.8772 1.04688C43.471 1.09245 43.0272 1.20936 42.5596 1.38768C42.092 1.56799 41.6402 1.84736 41.2182 2.22779C40.7981 2.60029 40.4474 3.11346 40.1819 3.75939C39.9085 4.40532 39.7678 5.21373 39.7599 6.20046V29.0557C39.7678 29.9493 39.964 30.7339 40.3444 31.4175C40.7268 32.1031 41.2657 32.638 41.9513 33.0363C42.6368 33.4246 43.4314 33.6188 44.3448 33.6267H65.5337C66.3441 33.6188 67.0534 33.5098 67.6696 33.3077C68.2858 33.1136 68.8168 32.8639 69.2528 32.5766C69.6887 32.2893 70.0394 32.0099 70.3128 31.7365C70.5783 31.4651 70.7645 31.255 70.8656 31.1084C71.3887 30.4149 71.7869 29.6382 72.0445 28.7763C72.308 27.9124 72.4883 27.003 72.5735 26.0539C72.6588 25.1068 72.6984 24.1656 72.6905 23.2245C72.6984 22.6737 72.6746 22.0515 72.6429 21.3818C72.6053 20.7062 72.526 20.0147 72.4032 19.3073C72.2862 18.5999 72.098 17.9223 71.8404 17.2704C71.5908 16.6166 71.248 16.0341 70.82 15.5288C70.4931 15.1484 70.0711 14.7977 69.548 14.4707C69.0348 14.1537 68.4265 13.8882 67.741 13.694C67.0534 13.4919 66.2827 13.3909 65.4406 13.383H50.3325V11.0509C50.3246 10.6467 50.3464 10.298 50.4177 10.0007C50.4871 9.71345 50.6595 9.48757 50.9468 9.33302C51.236 9.17055 51.6957 9.09129 52.3436 9.09129H70.7725V0.975552ZM50.3325 20.4724H58.799C59.009 20.4644 59.2507 20.4724 59.5242 20.4961C59.7956 20.512 60.069 20.5576 60.3583 20.6368C60.6377 20.7141 60.9032 20.8468 61.137 21.0331C61.3708 21.2035 61.5353 21.3818 61.6284 21.576C61.7294 21.7702 61.7909 21.9802 61.8146 22.1981C61.8384 22.4161 61.8463 22.6499 61.8384 22.8976C61.8463 23.0858 61.8384 23.3018 61.8146 23.5435C61.7988 23.7852 61.7453 24.017 61.6601 24.2588C61.5729 24.5005 61.4342 24.7105 61.2301 24.9047C61.0043 25.1068 60.7467 25.2455 60.4435 25.3307C60.1463 25.4179 59.8511 25.4714 59.5539 25.4872C59.2587 25.511 59.009 25.5189 58.799 25.511H52.5774C52.203 25.5189 51.876 25.511 51.5947 25.4952C51.3133 25.4793 51.0795 25.4179 50.8933 25.2931C50.705 25.1762 50.5663 24.9661 50.4712 24.663C50.3781 24.3598 50.3325 23.9318 50.3325 23.3652V20.4724ZM93.5069 0.603052C92.2586 0.595127 90.9806 0.618903 89.6709 0.672401C88.3612 0.727879 87.0733 0.866576 85.8032 1.0766C84.5411 1.28663 83.3404 1.62148 82.209 2.07918C81.0875 2.53886 80.081 3.16102 79.1933 3.96149C78.3116 4.78575 77.6181 5.73285 77.1188 6.80676C76.6116 7.87869 76.245 9.01402 76.0112 10.2108C75.7774 11.4095 75.6368 12.6142 75.5753 13.8268C75.5119 15.0394 75.4901 16.1965 75.4981 17.3021C75.4901 18.382 75.5119 19.5253 75.5753 20.7299C75.6368 21.9346 75.7774 23.1393 76.0112 24.336C76.245 25.5407 76.6116 26.684 77.1188 27.7638C77.6181 28.8457 78.3116 29.8007 79.1933 30.6408C80.0652 31.4334 81.0717 32.0634 82.2011 32.5231C83.3404 32.9808 84.549 33.3157 85.827 33.5257C87.0971 33.7357 88.3909 33.8665 89.7006 33.9299C91.0103 33.9834 92.2824 34.0072 93.5069 33.9992C94.7294 34.0072 96.0014 33.9834 97.3111 33.9299C98.6208 33.8665 99.9146 33.7357 101.193 33.5257C102.471 33.3157 103.671 32.9808 104.811 32.5231C105.94 32.0634 106.947 31.4334 107.82 30.6408C108.7 29.8007 109.394 28.8457 109.901 27.7638C110.4 26.684 110.767 25.5407 111 24.336C111.234 23.1393 111.375 21.9346 111.436 20.7299C111.5 19.5253 111.522 18.382 111.516 17.3021C111.522 16.1965 111.5 15.0394 111.436 13.8268C111.375 12.6142 111.234 11.4095 111 10.2108C110.767 9.01402 110.4 7.87869 109.901 6.80676C109.394 5.73285 108.7 4.78575 107.82 3.96149C106.939 3.16102 105.924 2.53886 104.803 2.07918C103.671 1.62148 102.479 1.28663 101.208 1.0766C99.9384 0.866576 98.6505 0.727879 97.3408 0.672401C96.0311 0.618903 94.7531 0.595127 93.5069 0.603052ZM86.3501 17.3021C86.3422 16.4066 86.364 15.5982 86.4036 14.8749C86.4511 14.1537 86.5601 13.484 86.7305 12.8698C86.9029 12.2556 87.1843 11.6651 87.5647 11.0984C88.0323 10.3911 88.5474 9.86998 89.124 9.5272C89.7006 9.18442 90.3485 8.96052 91.0737 8.85947C91.791 8.75842 92.6014 8.71087 93.5069 8.71879C94.4183 8.71087 95.2366 8.75842 95.9539 8.85947C96.6632 8.96052 97.3111 9.18442 97.8798 9.5272C98.4484 9.86998 98.9715 10.3911 99.447 11.0984C99.8592 11.6968 100.156 12.2873 100.327 12.8777C100.499 13.4761 100.6 14.122 100.632 14.8294C100.664 15.5367 100.67 16.361 100.664 17.3021C100.67 18.164 100.656 18.9566 100.616 19.6798C100.584 20.3951 100.475 21.0628 100.305 21.685C100.133 22.315 99.8433 22.9213 99.447 23.5039C98.9715 24.2112 98.4484 24.7323 97.8798 25.0751C97.3111 25.4179 96.6632 25.6418 95.9539 25.7428C95.2366 25.8439 94.4183 25.8914 93.5069 25.8835C92.6172 25.8914 91.8148 25.8439 91.0896 25.7428C90.3723 25.6418 89.7165 25.4179 89.1399 25.0751C88.5554 24.7323 88.0323 24.2112 87.5647 23.5039C87.214 22.961 86.9505 22.3784 86.7701 21.7404C86.5978 21.1104 86.4809 20.4268 86.4274 19.6877C86.3719 18.9487 86.3422 18.1561 86.3501 17.3021ZM150.9 33.6267V8.67322C150.907 8.12834 150.876 7.50619 150.814 6.81468C150.745 6.11526 150.581 5.4079 150.323 4.6847C150.065 3.96149 149.661 3.29377 149.098 2.67954C148.546 2.06531 147.781 1.56799 146.814 1.18558C145.849 0.805153 144.625 0.610978 143.135 0.603052C142.651 0.595127 142.114 0.626829 141.514 0.688252C140.913 0.751656 140.297 0.906204 139.659 1.14793C139.019 1.39561 138.387 1.77603 137.771 2.29713C137.163 2.81824 136.594 3.52559 136.073 4.42712L127.044 20.1474C126.842 20.5199 126.661 20.8072 126.523 21.0093C126.382 21.2114 126.241 21.3125 126.109 21.3125C125.922 21.3045 125.797 21.2431 125.71 21.1183C125.633 20.9935 125.587 20.8389 125.572 20.6665C125.548 20.4961 125.548 20.3416 125.548 20.193C125.548 20.0999 125.548 20.0147 125.548 19.9374C125.548 19.8581 125.548 19.7729 125.548 19.6798L126.015 0.975552H115.256V26.1629C115.241 27.1516 115.32 28.1145 115.49 29.0398C115.655 29.9731 115.99 30.8053 116.489 31.5503C116.98 32.2972 117.719 32.8877 118.686 33.3236C119.661 33.7654 120.955 33.9913 122.554 33.9992C123.683 33.9913 124.642 33.8903 125.447 33.6961C126.249 33.5019 126.911 33.2443 127.458 32.9194C127.995 32.6004 128.433 32.2418 128.775 31.8534C129.118 31.4651 129.4 31.0767 129.618 30.6884L138.926 14.8294C139.245 14.2924 139.495 13.8961 139.673 13.6326C139.853 13.375 140.01 13.2443 140.141 13.2443C140.368 13.2581 140.499 13.383 140.555 13.6247C140.602 13.8644 140.616 14.1379 140.61 14.4569L140.141 33.6267H150.9Z" fill="#5D2027"/>
<path d="M159.77 24.2442L157.521 13.8994C157.135 12.1181 157.391 10.541 158.29 9.16984C159.19 7.79674 160.408 6.94673 161.946 6.61385C163.917 6.18786 165.603 6.46921 167.008 7.45594C168.31 8.37728 169.158 9.74642 169.552 11.5614C169.863 12.9939 169.766 14.3135 169.259 15.5221C168.591 17.1152 167.295 18.1178 165.375 18.5338C165.225 18.5655 164.979 18.6012 164.638 18.6408C164.296 18.6785 164.032 18.7102 163.844 18.734L162.845 14.1352C163.125 14.2144 163.345 14.264 163.507 14.2798C163.668 14.2977 163.832 14.2897 163.998 14.2521C164.416 14.1629 164.747 13.9291 164.989 13.5546C165.231 13.1802 165.298 12.7423 165.189 12.243C165.084 11.7595 164.823 11.4068 164.407 11.1829C163.99 10.959 163.574 10.8917 163.156 10.9828C162.722 11.0759 162.386 11.2959 162.148 11.6446C161.908 11.9933 161.845 12.4252 161.956 12.9424L164.204 23.2852L159.77 24.2442ZM171.248 16.9507L167.789 1.03428L172.576 0L176.033 15.9164L171.248 16.9507ZM173.917 4.60275L178.526 3.60612L179.927 10.0516C180.058 10.6519 180.341 10.9035 180.775 10.8104C180.975 10.7668 181.149 10.642 181.296 10.4359C181.444 10.2299 181.488 9.99409 181.431 9.7266L180.03 3.28117L184.69 2.27463L186.128 8.89442C186.463 10.428 186.152 11.7754 185.199 12.9404C184.327 14.0024 183.156 14.69 181.686 15.009C180.268 15.3141 178.976 15.1675 177.813 14.5632C176.511 13.8855 175.693 12.772 175.356 11.2225L173.917 4.60275ZM187.686 13.3981L186.838 9.50073L189.846 8.85083C190.246 8.76365 190.43 8.64477 190.398 8.49617C190.373 8.37926 190.258 8.25642 190.054 8.12565C189.851 7.99488 189.586 7.90373 189.261 7.85222C188.348 7.75315 187.618 7.49953 187.076 7.09533C186.469 6.63367 186.065 5.94415 185.867 5.02875C185.657 4.06183 185.887 3.22767 186.554 2.52428C187.083 1.97544 187.706 1.62275 188.423 1.46622L193.46 0.378444L194.236 3.95088L191.906 4.45613C191.74 4.49179 191.577 4.56907 191.421 4.69191C191.262 4.81278 191.193 4.91383 191.211 4.99705C191.246 5.16348 191.553 5.32397 192.128 5.4805C193.2 5.82328 193.89 6.09275 194.195 6.28891C194.906 6.74462 195.362 7.44009 195.566 8.37332C195.79 9.40562 195.704 10.2259 195.312 10.8342C194.872 11.5396 194.008 12.031 192.723 12.3103L187.686 13.3981Z" fill="#FBCC0C"/>
</svg>
