<svg width="122" height="20" viewBox="0 0 122 20" fill="none" xmlns="http://www.w3.org/2000/svg">
<path d="M11.2284 0.340682C10.4502 0.336222 9.65341 0.349603 8.83689 0.379709C8.02037 0.410931 7.21867 0.488984 6.42562 0.60718C5.63875 0.725375 4.89017 0.913819 4.18482 1.1714C3.48565 1.43009 2.85813 1.78021 2.30472 2.2307C1.75502 2.69456 1.32267 3.22755 1.01138 3.83191C0.695148 4.43515 0.466621 5.07408 0.320857 5.74757C0.175094 6.42218 0.0886244 7.10013 0.0490953 7.78254C0.0108016 8.46495 -0.00402178 9.11614 0.000919348 9.73834C-0.00402178 10.346 0.0108016 10.9894 0.0490953 11.6674C0.0886244 12.3453 0.175094 13.0233 0.320857 13.6968C0.466621 14.3747 0.695148 15.0181 1.01138 15.6258C1.32267 16.2346 1.75502 16.7721 2.30472 17.2449C2.84824 17.6909 3.47577 18.0455 4.17988 18.3042C4.89017 18.5617 5.64369 18.7502 6.44044 18.8684C7.23226 18.9866 8.04013 19.0602 8.85666 19.0959C9.67318 19.126 10.465 19.1393 11.2284 19.1349C11.9906 19.1393 12.7836 19.126 13.6001 19.0959C14.4167 19.0602 15.2233 18.9866 16.0201 18.8684C16.8168 18.7502 17.5654 18.5617 18.2757 18.3042C18.9798 18.0455 19.6073 17.6909 20.1521 17.2449C20.7005 16.7721 21.1329 16.2346 21.4491 15.6258C21.7604 15.0181 21.9889 14.3747 22.1347 13.6968C22.2805 13.0233 22.3682 12.3453 22.4065 11.6674C22.446 10.9894 22.4608 10.346 22.4559 9.73834C22.4608 9.11614 22.446 8.46495 22.4065 7.78254C22.3682 7.10013 22.2805 6.42218 22.1347 5.74757C21.9889 5.07408 21.7604 4.43515 21.4491 3.83191C21.1329 3.22755 20.7005 2.69456 20.1521 2.2307C19.6024 1.78021 18.9711 1.43009 18.2707 1.1714C17.5654 0.913819 16.8218 0.725375 16.0299 0.60718C15.2381 0.488984 14.4364 0.410931 13.6199 0.379709C12.8021 0.349603 12.0054 0.336222 11.2284 0.340682ZM6.76656 9.73834C6.76162 9.23434 6.77644 8.7794 6.79991 8.3724C6.82956 7.96652 6.8975 7.58964 7.00373 7.24397C7.1112 6.8983 7.28661 6.56602 7.52379 6.24711C7.81655 5.84904 8.13649 5.55578 8.49595 5.36288C8.85666 5.16997 9.25936 5.04397 9.71147 4.9871C10.1586 4.93024 10.6639 4.90348 11.2284 4.90794C11.7966 4.90348 12.3068 4.93024 12.754 4.9871C13.1962 5.04397 13.6001 5.16997 13.9547 5.36288C14.3092 5.55578 14.6353 5.84904 14.9318 6.24711C15.1887 6.58386 15.374 6.91614 15.4802 7.24843C15.5877 7.58518 15.6507 7.94868 15.6705 8.34676C15.6902 8.74483 15.6952 9.20869 15.6902 9.73834C15.6952 10.2234 15.6853 10.6694 15.6606 11.0764C15.6408 11.4789 15.5729 11.8547 15.4667 12.2048C15.3592 12.5594 15.1801 12.9006 14.9318 13.2285C14.6353 13.6265 14.3092 13.9198 13.9547 14.1127C13.6001 14.3056 13.1962 14.4316 12.754 14.4885C12.3068 14.5453 11.7966 14.5721 11.2284 14.5676C10.6738 14.5721 10.1735 14.5453 9.72135 14.4885C9.27418 14.4316 8.8653 14.3056 8.50584 14.1127C8.14143 13.9198 7.81655 13.6265 7.52379 13.2285C7.30514 12.9229 7.14085 12.5951 7.02844 12.2361C6.9222 11.8815 6.84932 11.4968 6.81473 11.0809C6.78015 10.6649 6.76162 10.2189 6.76656 9.73834ZM44.1227 0.550312H27.9677C27.817 0.545852 27.6119 0.559232 27.355 0.590454C27.1018 0.6161 26.8251 0.681888 26.5335 0.782243C26.242 0.883713 25.9604 1.04093 25.6973 1.25502C25.4354 1.46465 25.2167 1.75345 25.0512 2.11696C24.8807 2.48047 24.793 2.93541 24.7881 3.4907V16.3528C24.793 16.8557 24.9153 17.2973 25.1525 17.682C25.3909 18.0678 25.7269 18.3688 26.1543 18.593C26.5817 18.8115 27.0771 18.9208 27.6465 18.9253H40.8566C41.3619 18.9208 41.8041 18.8595 42.1883 18.7457C42.5724 18.6365 42.9035 18.496 43.1753 18.3343C43.447 18.1726 43.6657 18.0154 43.8361 17.8615C44.0017 17.7087 44.1178 17.5905 44.1808 17.508C44.5069 17.1178 44.7552 16.6807 44.9158 16.1956C45.0801 15.7094 45.1925 15.1976 45.2456 14.6635C45.2987 14.1305 45.3234 13.6009 45.3185 13.0712C45.3234 12.7612 45.3086 12.4111 45.2888 12.0342C45.2654 11.654 45.216 11.2648 45.1394 10.8668C45.0665 10.4687 44.9491 10.0874 44.7885 9.7205C44.6329 9.35253 44.4192 9.02471 44.1524 8.74037C43.9486 8.52628 43.6854 8.32892 43.3593 8.14493C43.0394 7.96652 42.6602 7.81711 42.2327 7.70783C41.8041 7.5941 41.3236 7.53723 40.7986 7.53277H31.3796V6.22035C31.3746 5.99288 31.3882 5.79663 31.4327 5.62937C31.4759 5.46769 31.5834 5.34058 31.7625 5.2536C31.9428 5.16217 32.2294 5.11757 32.6334 5.11757H44.1227V0.550312ZM31.3796 11.5224H36.6579C36.7889 11.518 36.9396 11.5224 37.11 11.5358C37.2793 11.5447 37.4497 11.5704 37.6301 11.615C37.8043 11.6585 37.9698 11.7332 38.1155 11.838C38.2613 11.9339 38.3638 12.0342 38.4219 12.1435C38.4849 12.2528 38.5232 12.371 38.538 12.4936C38.5528 12.6163 38.5578 12.7479 38.5528 12.8872C38.5578 12.9932 38.5528 13.1147 38.538 13.2508C38.5281 13.3868 38.4948 13.5173 38.4417 13.6533C38.3873 13.7893 38.3008 13.9075 38.1736 14.0168C38.0328 14.1305 37.8722 14.2086 37.6832 14.2565C37.4979 14.3056 37.3139 14.3357 37.1286 14.3446C36.9445 14.358 36.7889 14.3625 36.6579 14.358H32.7791C32.5457 14.3625 32.3418 14.358 32.1664 14.3491C31.991 14.3402 31.8453 14.3056 31.7291 14.2353C31.6118 14.1696 31.5253 14.0514 31.466 13.8808C31.408 13.7102 31.3796 13.4693 31.3796 13.1504V11.5224ZM58.2964 0.340682C57.5181 0.336222 56.7214 0.349603 55.9048 0.379709C55.0883 0.410931 54.2854 0.488984 53.4936 0.60718C52.7067 0.725375 51.9581 0.913819 51.2528 1.1714C50.5536 1.43009 49.9261 1.78021 49.3727 2.2307C48.823 2.69456 48.3906 3.22755 48.0793 3.83191C47.7631 4.43515 47.5346 5.07408 47.3888 5.74757C47.243 6.42218 47.1553 7.10013 47.1171 7.78254C47.0775 8.46495 47.0639 9.11614 47.0689 9.73834C47.0639 10.346 47.0775 10.9894 47.1171 11.6674C47.1553 12.3453 47.243 13.0233 47.3888 13.6968C47.5346 14.3747 47.7631 15.0181 48.0793 15.6258C48.3906 16.2346 48.823 16.7721 49.3727 17.2449C49.9162 17.6909 50.5437 18.0455 51.2478 18.3042C51.9581 18.5617 52.7116 18.7502 53.5084 18.8684C54.3002 18.9866 55.1069 19.0602 55.9234 19.0959C56.7399 19.126 57.5329 19.1393 58.2964 19.1349C59.0585 19.1393 59.8516 19.126 60.6681 19.0959C61.4846 19.0602 62.2913 18.9866 63.088 18.8684C63.8848 18.7502 64.6333 18.5617 65.3436 18.3042C66.0477 18.0455 66.6753 17.6909 67.22 17.2449C67.7685 16.7721 68.2008 16.2346 68.5171 15.6258C68.8284 15.0181 69.0569 14.3747 69.2027 13.6968C69.3484 13.0233 69.4361 12.3453 69.4744 11.6674C69.5139 10.9894 69.5275 10.346 69.5238 9.73834C69.5275 9.11614 69.5139 8.46495 69.4744 7.78254C69.4361 7.10013 69.3484 6.42218 69.2027 5.74757C69.0569 5.07408 68.8284 4.43515 68.5171 3.83191C68.2008 3.22755 67.7685 2.69456 67.22 2.2307C66.6703 1.78021 66.0379 1.43009 65.3387 1.1714C64.6333 0.913819 63.8897 0.725375 63.0979 0.60718C62.3061 0.488984 61.5031 0.410931 60.6866 0.379709C59.8701 0.349603 59.0733 0.336222 58.2964 0.340682ZM53.8345 9.73834C53.8296 9.23434 53.8432 8.7794 53.8679 8.3724C53.8975 7.96652 53.9655 7.58964 54.0717 7.24397C54.1792 6.8983 54.3546 6.56602 54.5917 6.24711C54.8833 5.84904 55.2044 5.55578 55.5639 5.36288C55.9234 5.16997 56.3273 5.04397 56.7794 4.9871C57.2266 4.93024 57.7318 4.90348 58.2964 4.90794C58.8646 4.90348 59.3748 4.93024 59.8219 4.9871C60.2642 5.04397 60.6681 5.16997 61.0226 5.36288C61.3771 5.55578 61.7033 5.84904 61.9997 6.24711C62.2567 6.58386 62.442 6.91614 62.5482 7.24843C62.6557 7.58518 62.7187 7.94868 62.7384 8.34676C62.7582 8.74483 62.7619 9.20869 62.7582 9.73834C62.7619 10.2234 62.7533 10.6694 62.7285 11.0764C62.7088 11.4789 62.6408 11.8547 62.5346 12.2048C62.4271 12.5594 62.2468 12.9006 61.9997 13.2285C61.7033 13.6265 61.3771 13.9198 61.0226 14.1127C60.6681 14.3056 60.2642 14.4316 59.8219 14.4885C59.3748 14.5453 58.8646 14.5721 58.2964 14.5676C57.7417 14.5721 57.2414 14.5453 56.7893 14.4885C56.3421 14.4316 55.9333 14.3056 55.5738 14.1127C55.2094 13.9198 54.8833 13.6265 54.5917 13.2285C54.3731 12.9229 54.2088 12.5951 54.0964 12.2361C53.9889 11.8815 53.916 11.4968 53.8827 11.0809C53.8481 10.6649 53.8296 10.2189 53.8345 9.73834ZM94.0775 18.9253V4.88229C94.0825 4.57565 94.0627 4.22552 94.0244 3.83637C93.9812 3.44276 93.8786 3.04468 93.7181 2.63769C93.5575 2.2307 93.3055 1.85492 92.9547 1.50926C92.61 1.16359 92.1332 0.883713 91.5304 0.668508C90.9288 0.454418 90.1654 0.345142 89.2365 0.340682C88.9351 0.336222 88.6003 0.354063 88.226 0.388629C87.8517 0.424311 87.4675 0.511285 87.0698 0.647322C86.6708 0.786703 86.2767 1.00079 85.8925 1.29405C85.5133 1.58731 85.1588 1.98538 84.8339 2.49273L79.2047 11.3396C79.0787 11.5492 78.9663 11.7109 78.8799 11.8246C78.7922 11.9383 78.7044 11.9952 78.6217 11.9952C78.5056 11.9907 78.4277 11.9562 78.3734 11.8859C78.3252 11.8157 78.2968 11.7287 78.2869 11.6317C78.2721 11.5358 78.2721 11.4488 78.2721 11.3652C78.2721 11.3128 78.2721 11.2648 78.2721 11.2214C78.2721 11.1768 78.2721 11.1288 78.2721 11.0764L78.5636 0.550312H71.856V14.7249C71.8462 15.2813 71.8956 15.8232 72.0018 16.3439C72.1043 16.8691 72.3131 17.3374 72.6244 17.7567C72.9307 18.1771 73.3915 18.5093 73.9943 18.7547C74.6021 19.0033 75.4087 19.1304 76.4056 19.1349C77.1097 19.1304 77.7076 19.0736 78.2091 18.9643C78.7094 18.855 79.122 18.71 79.4629 18.5272C79.7977 18.3477 80.0707 18.1458 80.2844 17.9273C80.4981 17.7087 80.6735 17.4902 80.8094 17.2716L86.6127 8.34676C86.8116 8.04458 86.9672 7.82157 87.0784 7.67326C87.1908 7.52831 87.2884 7.45471 87.3699 7.45471C87.512 7.46252 87.5935 7.53277 87.6281 7.6688C87.6578 7.80373 87.6664 7.9576 87.6627 8.13713L87.3699 18.9253H94.0775Z" fill="#5D2027"/>
<path d="M99.6069 13.6438L98.2049 7.82209C97.964 6.81966 98.1234 5.93208 98.6842 5.16046C99.245 4.38773 100.005 3.90937 100.963 3.72205C102.192 3.48231 103.244 3.64065 104.119 4.19594C104.931 4.71444 105.46 5.48494 105.706 6.50633C105.899 7.31252 105.839 8.05514 105.523 8.73532C105.106 9.63183 104.299 10.196 103.102 10.4302C103.008 10.448 102.854 10.4681 102.642 10.4904C102.428 10.5116 102.264 10.5294 102.147 10.5428L101.524 7.95479C101.698 7.99939 101.835 8.02726 101.937 8.03619C102.037 8.04622 102.139 8.04176 102.243 8.02057C102.504 7.9704 102.71 7.83882 102.861 7.62808C103.011 7.41733 103.053 7.1709 102.985 6.88991C102.92 6.61784 102.757 6.41936 102.497 6.29336C102.238 6.16736 101.979 6.12945 101.718 6.18074C101.448 6.23314 101.238 6.35692 101.089 6.55316C100.94 6.74941 100.9 6.9925 100.969 7.28352L102.371 13.1041L99.6069 13.6438ZM106.763 9.53928L104.606 0.582058L107.591 0L109.746 8.95722L106.763 9.53928ZM108.427 2.59027L111.3 2.0294L112.173 5.65666C112.255 5.99452 112.432 6.13614 112.702 6.08373C112.827 6.0592 112.936 5.98895 113.027 5.87298C113.12 5.75702 113.147 5.62433 113.111 5.47379L112.238 1.84653L115.143 1.28008L116.04 5.00547C116.249 5.86852 116.055 6.62676 115.461 7.28241C114.917 7.88008 114.187 8.267 113.27 8.44652C112.386 8.61824 111.581 8.53573 110.855 8.19564C110.044 7.81429 109.534 7.18763 109.324 6.31566L108.427 2.59027ZM117.011 7.53999L116.482 5.34668L118.357 4.98094C118.607 4.93188 118.722 4.86497 118.702 4.78135C118.686 4.71556 118.614 4.64642 118.487 4.57283C118.361 4.49924 118.195 4.44795 117.993 4.41895C117.423 4.3632 116.969 4.22047 116.63 3.993C116.252 3.7332 116 3.34516 115.877 2.83C115.746 2.28586 115.889 1.81642 116.305 1.42058C116.635 1.11171 117.023 0.913228 117.47 0.825139L120.61 0.212975L121.095 2.22342L119.642 2.50775C119.538 2.52782 119.437 2.57131 119.339 2.64044C119.241 2.70846 119.197 2.76533 119.208 2.81216C119.231 2.90583 119.422 2.99615 119.78 3.08424C120.449 3.27714 120.878 3.42879 121.069 3.53918C121.512 3.79564 121.796 4.18702 121.924 4.71221C122.063 5.29316 122.01 5.75479 121.765 6.09711C121.491 6.49407 120.953 6.7706 120.151 6.92782L117.011 7.53999Z" fill="#FBCC0C"/>
</svg>
