<svg width="12" height="11" viewBox="0 0 12 11" fill="none" xmlns="http://www.w3.org/2000/svg">
<g clip-path="url(#clip0)">
<path d="M6 0.150391C3.51855 0.150391 1.5 1.97269 1.5 4.2124C1.5 7.20911 5.65186 10.7709 5.82863 10.9212C5.87695 10.9619 5.93848 10.9824 6 10.9824C6.06152 10.9824 6.12305 10.9619 6.1714 10.9212C6.34814 10.7709 10.5 7.20911 10.5 4.2124C10.5 1.97269 8.48145 0.150391 6 0.150391ZM6 10.441C5.21435 9.73289 1.99999 6.68416 1.99999 4.2124C1.99999 2.22151 3.79444 0.601718 6 0.601718C8.20556 0.601718 10 2.22151 10 4.2124C10 6.68416 6.78565 9.73289 6 10.441Z" fill="#C9303F"/>
<path d="M6.00001 1.95703C4.62158 1.95703 3.5 2.96927 3.5 4.21333C3.5 5.45738 4.6216 6.46962 6.00001 6.46962C7.37842 6.46962 8.50002 5.45738 8.50002 4.21333C8.50002 2.96927 7.37844 1.95703 6.00001 1.95703ZM6.00001 6.01835C4.89697 6.01835 4.00002 5.2086 4.00002 4.21333C4.00002 3.21805 4.89699 2.4083 6.00001 2.4083C7.10303 2.4083 8.00001 3.21805 8.00001 4.21333C8.00001 5.2086 7.10305 6.01835 6.00001 6.01835Z" fill="#C9303F"/>
</g>
<defs>
<clipPath id="clip0">
<rect y="0.150391" width="12" height="10.832" fill="white"/>
</clipPath>
</defs>
</svg>
