<svg width="36" height="36" viewBox="0 0 36 36" fill="none" xmlns="http://www.w3.org/2000/svg">
<rect x="0.5" y="0.5" width="35" height="35" rx="17.5" fill="white" stroke="#BDBDBD"/>
<g clip-path="url(#clip0)">
<path d="M23.2688 20.6996C22.1109 20.6996 21.0896 21.2512 20.4223 22.096L14.2332 18.9309C14.3142 18.6287 14.3725 18.3164 14.3725 17.9878C14.3725 17.6301 14.3033 17.2933 14.2068 16.9656L20.3686 13.8151C21.0322 14.6981 22.0799 15.2752 23.2697 15.2752C25.285 15.2752 26.9154 13.6449 26.9154 11.6313C26.9154 9.61953 25.285 7.98828 23.2697 7.98828C21.2589 7.98828 19.6267 9.61953 19.6267 11.6313C19.6267 11.9608 19.685 12.2739 19.7669 12.577L13.5787 15.7421C12.9106 14.8965 11.8874 14.343 10.7277 14.343C8.71411 14.343 7.08472 15.9752 7.08472 17.9878C7.08472 20.0005 8.71415 21.6317 10.7277 21.6317C11.9193 21.6317 12.9661 21.0528 13.6324 20.1689L19.7914 23.3194C19.6949 23.6462 19.6249 23.9857 19.6249 24.3444C19.6249 26.357 21.257 27.9883 23.2678 27.9883C25.2832 27.9883 26.9136 26.357 26.9136 24.3444C26.9145 22.3299 25.2842 20.6996 23.2688 20.6996Z" fill="#BDBDBD"/>
</g>
<defs>
<clipPath id="clip0">
<rect x="7" y="7.98828" width="20" height="20" fill="white"/>
</clipPath>
</defs>
</svg>
